<svg viewBox="0 0 720 294" role="img" data-anim="y" aria-label="Runs with a verdict per ladder step, stacked by model. L1 594, L2 737, L3–4 156, L5–6 123.">
<line x1="40.0" y1="250.0" x2="700.0" y2="250.0" stroke="var(--line)" stroke-width="1.5"/>
<rect x="90.0" y="119.2" width="88.0" height="130.8" rx="0.0" fill="var(--chart-1)"><title>L1, Composer: 459 runs</title></rect>
<rect x="90.0" y="81.0" width="88.0" height="38.2" rx="0.0" fill="var(--chart-2)"><title>L1, Devin: 134 runs</title></rect>
<rect x="90.0" y="80.7" width="88.0" height="0.3" rx="0.0" fill="var(--chart-3)"><title>L1, Grok: 1 runs</title></rect>
<text x="134.0" y="70.7" text-anchor="middle" fill="var(--text)" font-size="19" font-weight="700" font-family="var(--font-mono)">594</text>
<text x="134.0" y="280.0" text-anchor="middle" fill="var(--text)" font-size="20" font-weight="700" font-family="var(--font-mono)">L1</text>
<rect x="240.0" y="68.5" width="88.0" height="181.5" rx="0.0" fill="var(--chart-1)"><title>L2, Composer: 637 runs</title></rect>
<rect x="240.0" y="40.0" width="88.0" height="28.5" rx="0.0" fill="var(--chart-2)"><title>L2, Devin: 100 runs</title></rect>
<text x="284.0" y="30.0" text-anchor="middle" fill="var(--text)" font-size="19" font-weight="700" font-family="var(--font-mono)">737</text>
<text x="284.0" y="280.0" text-anchor="middle" fill="var(--text)" font-size="20" font-weight="700" font-family="var(--font-mono)">L2</text>
<rect x="390.0" y="211.5" width="88.0" height="38.5" rx="0.0" fill="var(--chart-1)"><title>L3–4, Composer: 135 runs</title></rect>
<rect x="390.0" y="205.5" width="88.0" height="6.0" rx="0.0" fill="var(--chart-2)"><title>L3–4, Devin: 21 runs</title></rect>
<text x="434.0" y="195.5" text-anchor="middle" fill="var(--text)" font-size="19" font-weight="700" font-family="var(--font-mono)">156</text>
<text x="434.0" y="280.0" text-anchor="middle" fill="var(--text-2)" font-size="20" font-weight="700" font-family="var(--font-mono)">L3–4</text>
<rect x="540.0" y="217.8" width="88.0" height="32.2" rx="0.0" fill="var(--chart-1)"><title>L5–6, Composer: 113 runs</title></rect>
<rect x="540.0" y="215.2" width="88.0" height="2.6" rx="0.0" fill="var(--chart-2)"><title>L5–6, Devin: 9 runs</title></rect>
<rect x="540.0" y="215.0" width="88.0" height="0.3" rx="0.0" fill="var(--chart-3)"><title>L5–6, Grok: 1 runs</title></rect>
<text x="584.0" y="205.0" text-anchor="middle" fill="var(--text)" font-size="19" font-weight="700" font-family="var(--font-mono)">123</text>
<text x="584.0" y="280.0" text-anchor="middle" fill="var(--text-2)" font-size="20" font-weight="700" font-family="var(--font-mono)">L5–6</text>
<rect x="450.0" y="10.0" width="14.0" height="14.0" rx="2.0" fill="var(--chart-1)"></rect>
<text x="470.0" y="22.0" fill="var(--text-2)" font-size="16" font-family="var(--font-sans)">Composer</text>
<rect x="560.0" y="10.0" width="14.0" height="14.0" rx="2.0" fill="var(--chart-2)"></rect>
<text x="580.0" y="22.0" fill="var(--text-2)" font-size="16" font-family="var(--font-sans)">Devin</text>
<rect x="640.0" y="10.0" width="14.0" height="14.0" rx="2.0" fill="var(--chart-3)"></rect>
<text x="660.0" y="22.0" fill="var(--text-2)" font-size="16" font-family="var(--font-sans)">Grok</text>
</svg>
