<svg viewBox="0 0 720 458" role="img" aria-label="Pass rate by rung for the base model and A. base L1 24%; A (SmolDataEnvs-sft) L1 26%; base L1 + rules 17%; A (SmolDataEnvs-sft) L1 + rules 25%; base L2 23%; A (SmolDataEnvs-sft) L2 31%; base L3 35%; A (SmolDataEnvs-sft) L3 36%; base L4 69%; A (SmolDataEnvs-sft) L4 73%">
<text x="360.0" y="24.0" text-anchor="middle" fill="var(--text)" font-size="19" font-weight="700" font-family="var(--font-sans)">Pass Rate by Rung: Base and A</text>
<g transform="translate(0 44)">
<line x1="70.0" y1="320.0" x2="690.0" y2="320.0" stroke="var(--line)" stroke-width="1"/>
<text x="60.0" y="325.0" text-anchor="end" fill="var(--text-3)" font-size="14" font-family="var(--font-mono)">0%</text>
<line x1="70.0" y1="252.5" x2="690.0" y2="252.5" stroke="var(--line)" stroke-width="1"/>
<text x="60.0" y="257.5" text-anchor="end" fill="var(--text-3)" font-size="14" font-family="var(--font-mono)">20%</text>
<line x1="70.0" y1="185.0" x2="690.0" y2="185.0" stroke="var(--line)" stroke-width="1"/>
<text x="60.0" y="190.0" text-anchor="end" fill="var(--text-3)" font-size="14" font-family="var(--font-mono)">40%</text>
<line x1="70.0" y1="117.5" x2="690.0" y2="117.5" stroke="var(--line)" stroke-width="1"/>
<text x="60.0" y="122.5" text-anchor="end" fill="var(--text-3)" font-size="14" font-family="var(--font-mono)">60%</text>
<line x1="70.0" y1="50.0" x2="690.0" y2="50.0" stroke="var(--line)" stroke-width="1"/>
<text x="60.0" y="55.0" text-anchor="end" fill="var(--text-3)" font-size="14" font-family="var(--font-mono)">80%</text>
<rect x="90.0" y="239.0" width="36.0" height="81.0" rx="3.0" fill="var(--text-3)"><title>base at L1: 24% [19%, 29%]</title></rect>
<line x1="108.0" y1="221.5" x2="108.0" y2="256.6" stroke="var(--text)" stroke-width="1.5"/>
<line x1="103.0" y1="221.5" x2="113.0" y2="221.5" stroke="var(--text)" stroke-width="1.5"/>
<line x1="103.0" y1="256.6" x2="113.0" y2="256.6" stroke="var(--text)" stroke-width="1.5"/>
<text x="108.0" y="214.5" text-anchor="middle" fill="var(--text-2)" font-size="13" font-family="var(--font-mono)">24%</text>
<rect x="138.0" y="233.6" width="36.0" height="86.4" rx="3.0" fill="var(--chart-1)"><title>A (SmolDataEnvs-sft) at L1: 26% [20%, 31%]</title></rect>
<line x1="156.0" y1="214.7" x2="156.0" y2="251.2" stroke="var(--text)" stroke-width="1.5"/>
<line x1="151.0" y1="214.7" x2="161.0" y2="214.7" stroke="var(--text)" stroke-width="1.5"/>
<line x1="151.0" y1="251.2" x2="161.0" y2="251.2" stroke="var(--text)" stroke-width="1.5"/>
<text x="156.0" y="207.7" text-anchor="middle" fill="var(--text-2)" font-size="13" font-family="var(--font-mono)">26%</text>
<text x="132.0" y="342.0" text-anchor="middle" fill="var(--text)" font-size="15" font-weight="700" font-family="var(--font-mono)">L1</text>
<text x="132.0" y="360.0" text-anchor="middle" fill="var(--text-2)" font-size="13" font-family="var(--font-sans)">question</text>
<rect x="214.0" y="263.3" width="36.0" height="56.7" rx="3.0" fill="var(--text-3)"><title>base at L1 + rules: 17% [12%, 22%]</title></rect>
<line x1="232.0" y1="247.1" x2="232.0" y2="278.1" stroke="var(--text)" stroke-width="1.5"/>
<line x1="227.0" y1="247.1" x2="237.0" y2="247.1" stroke="var(--text)" stroke-width="1.5"/>
<line x1="227.0" y1="278.1" x2="237.0" y2="278.1" stroke="var(--text)" stroke-width="1.5"/>
<text x="232.0" y="240.1" text-anchor="middle" fill="var(--text-2)" font-size="13" font-family="var(--font-mono)">17%</text>
<rect x="262.0" y="236.3" width="36.0" height="83.7" rx="3.0" fill="var(--chart-1)"><title>A (SmolDataEnvs-sft) at L1 + rules: 25% [20%, 30%]</title></rect>
<line x1="280.0" y1="217.4" x2="280.0" y2="252.5" stroke="var(--text)" stroke-width="1.5"/>
<line x1="275.0" y1="217.4" x2="285.0" y2="217.4" stroke="var(--text)" stroke-width="1.5"/>
<line x1="275.0" y1="252.5" x2="285.0" y2="252.5" stroke="var(--text)" stroke-width="1.5"/>
<text x="280.0" y="210.4" text-anchor="middle" fill="var(--text-2)" font-size="13" font-family="var(--font-mono)">25%</text>
<text x="256.0" y="342.0" text-anchor="middle" fill="var(--text)" font-size="15" font-weight="700" font-family="var(--font-mono)">L1</text>
<text x="256.0" y="360.0" text-anchor="middle" fill="var(--text-2)" font-size="13" font-family="var(--font-sans)">+ rules</text>
<rect x="338.0" y="240.8" width="36.0" height="79.2" rx="3.0" fill="var(--text-3)"><title>base at L2: 23% [18%, 30%]</title></rect>
<line x1="356.0" y1="220.2" x2="356.0" y2="259.8" stroke="var(--text)" stroke-width="1.5"/>
<line x1="351.0" y1="220.2" x2="361.0" y2="220.2" stroke="var(--text)" stroke-width="1.5"/>
<line x1="351.0" y1="259.8" x2="361.0" y2="259.8" stroke="var(--text)" stroke-width="1.5"/>
<text x="356.0" y="213.2" text-anchor="middle" fill="var(--text-2)" font-size="13" font-family="var(--font-mono)">23%</text>
<rect x="386.0" y="215.4" width="36.0" height="104.6" rx="3.0" fill="var(--chart-1)"><title>A (SmolDataEnvs-sft) at L2: 31% [25%, 38%]</title></rect>
<line x1="404.0" y1="193.2" x2="404.0" y2="236.0" stroke="var(--text)" stroke-width="1.5"/>
<line x1="399.0" y1="193.2" x2="409.0" y2="193.2" stroke="var(--text)" stroke-width="1.5"/>
<line x1="399.0" y1="236.0" x2="409.0" y2="236.0" stroke="var(--text)" stroke-width="1.5"/>
<text x="404.0" y="186.2" text-anchor="middle" fill="var(--text-2)" font-size="13" font-family="var(--font-mono)">31%</text>
<text x="380.0" y="342.0" text-anchor="middle" fill="var(--text)" font-size="15" font-weight="700" font-family="var(--font-mono)">L2</text>
<text x="380.0" y="360.0" text-anchor="middle" fill="var(--text-2)" font-size="13" font-family="var(--font-sans)">+ columns</text>
<rect x="462.0" y="202.8" width="36.0" height="117.2" rx="3.0" fill="var(--text-3)"><title>base at L3: 35% [29%, 41%]</title></rect>
<line x1="480.0" y1="180.6" x2="480.0" y2="223.3" stroke="var(--text)" stroke-width="1.5"/>
<line x1="475.0" y1="180.6" x2="485.0" y2="180.6" stroke="var(--text)" stroke-width="1.5"/>
<line x1="475.0" y1="223.3" x2="485.0" y2="223.3" stroke="var(--text)" stroke-width="1.5"/>
<text x="480.0" y="173.6" text-anchor="middle" fill="var(--text-2)" font-size="13" font-family="var(--font-mono)">35%</text>
<rect x="510.0" y="198.0" width="36.0" height="122.0" rx="3.0" fill="var(--chart-1)"><title>A (SmolDataEnvs-sft) at L3: 36% [30%, 43%]</title></rect>
<line x1="528.0" y1="175.8" x2="528.0" y2="220.2" stroke="var(--text)" stroke-width="1.5"/>
<line x1="523.0" y1="175.8" x2="533.0" y2="175.8" stroke="var(--text)" stroke-width="1.5"/>
<line x1="523.0" y1="220.2" x2="533.0" y2="220.2" stroke="var(--text)" stroke-width="1.5"/>
<text x="528.0" y="168.8" text-anchor="middle" fill="var(--text-2)" font-size="13" font-family="var(--font-mono)">36%</text>
<text x="504.0" y="342.0" text-anchor="middle" fill="var(--text)" font-size="15" font-weight="700" font-family="var(--font-mono)">L3</text>
<text x="504.0" y="360.0" text-anchor="middle" fill="var(--text-2)" font-size="13" font-family="var(--font-sans)">+ method</text>
<rect x="586.0" y="88.7" width="36.0" height="231.3" rx="3.0" fill="var(--text-3)"><title>base at L4: 69% [62%, 75%]</title></rect>
<line x1="604.0" y1="66.5" x2="604.0" y2="110.9" stroke="var(--text)" stroke-width="1.5"/>
<line x1="599.0" y1="66.5" x2="609.0" y2="66.5" stroke="var(--text)" stroke-width="1.5"/>
<line x1="599.0" y1="110.9" x2="609.0" y2="110.9" stroke="var(--text)" stroke-width="1.5"/>
<text x="604.0" y="59.5" text-anchor="middle" fill="var(--text-2)" font-size="13" font-family="var(--font-mono)">69%</text>
<rect x="634.0" y="74.4" width="36.0" height="245.6" rx="3.0" fill="var(--chart-1)"><title>A (SmolDataEnvs-sft) at L4: 73% [67%, 79%]</title></rect>
<line x1="652.0" y1="53.8" x2="652.0" y2="95.0" stroke="var(--text)" stroke-width="1.5"/>
<line x1="647.0" y1="53.8" x2="657.0" y2="53.8" stroke="var(--text)" stroke-width="1.5"/>
<line x1="647.0" y1="95.0" x2="657.0" y2="95.0" stroke="var(--text)" stroke-width="1.5"/>
<text x="652.0" y="46.8" text-anchor="middle" fill="var(--text-2)" font-size="13" font-family="var(--font-mono)">73%</text>
<text x="628.0" y="342.0" text-anchor="middle" fill="var(--text)" font-size="15" font-weight="700" font-family="var(--font-mono)">L4</text>
<text x="628.0" y="360.0" text-anchor="middle" fill="var(--text-2)" font-size="13" font-family="var(--font-sans)">+ program</text>
<line x1="70.0" y1="320.0" x2="690.0" y2="320.0" stroke="var(--text-3)" stroke-width="1.5"/>
<line x1="70.0" y1="50.0" x2="70.0" y2="320.0" stroke="var(--text-3)" stroke-width="1.5"/>
<text x="14.0" y="185.0" text-anchor="middle" fill="var(--text-2)" font-size="15" font-family="var(--font-sans)" transform="rotate(-90 14.0 185.0)">pass rate</text>
<text x="380.0" y="380.0" text-anchor="middle" fill="var(--text-2)" font-size="15" font-family="var(--font-sans)">rung</text>
<rect x="80.0" y="8.0" width="14.0" height="14.0" rx="3.0" fill="var(--text-3)"></rect>
<text x="100.0" y="20.0" fill="var(--text-2)" font-size="14" font-family="var(--font-sans)">base</text>
<rect x="176.0" y="8.0" width="14.0" height="14.0" rx="3.0" fill="var(--chart-1)"></rect>
<text x="196.0" y="20.0" fill="var(--text-2)" font-size="14" font-family="var(--font-sans)">A (SmolDataEnvs-sft)</text>
<text x="70.0" y="400.0" fill="var(--text-3)" font-size="12" font-family="var(--font-sans)">Whiskers are 95% bootstrap intervals over tasks; L1 on 250 tasks, the rest on the 213 with a verified reference.</text>
</g>
</svg>
