<svg viewBox="0 0 720 358" role="img" aria-label="L1 pass rate by model. Temperature 0, one attempt, 250 tasks: base 24%; Temperature 0, one attempt, 250 tasks: A (upstream trajectories) 26%; Temperature 0, one attempt, 250 tasks: B, seed 1 11%; Temperature 0, one attempt, 250 tasks: B, seed 2 14%; Sampled, 4 attempts per task, 60 tasks: base 20%; Sampled, 4 attempts per task, 60 tasks: A (upstream trajectories) 22%; Sampled, 4 attempts per task, 60 tasks: B (our trajectories) 19%">
<text x="360.0" y="24.0" text-anchor="middle" fill="var(--text)" font-size="19" font-weight="700" font-family="var(--font-sans)">Fine-Tuning at L1</text>
<g transform="translate(0 44)">
<text x="70.0" y="22.0" fill="var(--text-2)" font-size="15" font-family="var(--font-sans)">Temperature 0, one attempt, 250 tasks</text>
<line x1="70.0" y1="250.0" x2="370.0" y2="250.0" stroke="var(--line)" stroke-width="1"/>
<text x="60.0" y="255.0" text-anchor="end" fill="var(--text-3)" font-size="14" font-family="var(--font-mono)">0%</text>
<line x1="70.0" y1="199.5" x2="370.0" y2="199.5" stroke="var(--line)" stroke-width="1"/>
<text x="60.0" y="204.5" text-anchor="end" fill="var(--text-3)" font-size="14" font-family="var(--font-mono)">10%</text>
<line x1="70.0" y1="149.0" x2="370.0" y2="149.0" stroke="var(--line)" stroke-width="1"/>
<text x="60.0" y="154.0" text-anchor="end" fill="var(--text-3)" font-size="14" font-family="var(--font-mono)">20%</text>
<line x1="70.0" y1="98.5" x2="370.0" y2="98.5" stroke="var(--line)" stroke-width="1"/>
<text x="60.0" y="103.5" text-anchor="end" fill="var(--text-3)" font-size="14" font-family="var(--font-mono)">30%</text>
<line x1="70.0" y1="48.0" x2="370.0" y2="48.0" stroke="var(--line)" stroke-width="1"/>
<text x="60.0" y="53.0" text-anchor="end" fill="var(--text-3)" font-size="14" font-family="var(--font-mono)">40%</text>
<rect x="85.5" y="128.8" width="44.0" height="121.2" rx="3.0" fill="var(--text-3)"><title>base: 24% [19%, 29%]</title></rect>
<line x1="107.5" y1="102.5" x2="107.5" y2="155.1" stroke="var(--text)" stroke-width="1.5"/>
<line x1="102.5" y1="102.5" x2="112.5" y2="102.5" stroke="var(--text)" stroke-width="1.5"/>
<line x1="102.5" y1="155.1" x2="112.5" y2="155.1" stroke="var(--text)" stroke-width="1.5"/>
<text x="107.5" y="95.5" text-anchor="middle" fill="var(--text-2)" font-size="13" font-family="var(--font-mono)">24%</text>
<text x="107.5" y="270.0" text-anchor="middle" fill="var(--text)" font-size="14" font-weight="700" font-family="var(--font-sans)">base</text>
<rect x="160.5" y="120.7" width="44.0" height="129.3" rx="3.0" fill="var(--chart-1)"><title>A (upstream trajectories): 26% [20%, 31%]</title></rect>
<line x1="182.5" y1="92.4" x2="182.5" y2="147.0" stroke="var(--text)" stroke-width="1.5"/>
<line x1="177.5" y1="92.4" x2="187.5" y2="92.4" stroke="var(--text)" stroke-width="1.5"/>
<line x1="177.5" y1="147.0" x2="187.5" y2="147.0" stroke="var(--text)" stroke-width="1.5"/>
<text x="182.5" y="85.4" text-anchor="middle" fill="var(--text-2)" font-size="13" font-family="var(--font-mono)">26%</text>
<text x="182.5" y="270.0" text-anchor="middle" fill="var(--text)" font-size="14" font-family="var(--font-sans)">A</text>
<rect x="235.5" y="195.5" width="44.0" height="54.5" rx="3.0" fill="var(--chart-2)"><title>B, seed 1: 11% [7%, 15%]</title></rect>
<line x1="257.5" y1="175.3" x2="257.5" y2="213.6" stroke="var(--text)" stroke-width="1.5"/>
<line x1="252.5" y1="175.3" x2="262.5" y2="175.3" stroke="var(--text)" stroke-width="1.5"/>
<line x1="252.5" y1="213.6" x2="262.5" y2="213.6" stroke="var(--text)" stroke-width="1.5"/>
<text x="257.5" y="168.3" text-anchor="middle" fill="var(--text-2)" font-size="13" font-family="var(--font-mono)">11%</text>
<text x="257.5" y="270.0" text-anchor="middle" fill="var(--text)" font-size="14" font-family="var(--font-sans)">B, seed 1</text>
<rect x="310.5" y="181.3" width="44.0" height="68.7" rx="3.0" fill="color-mix(in srgb, var(--chart-2) 60%, var(--bg))"><title>B, seed 2: 14% [10%, 18%]</title></rect>
<line x1="332.5" y1="159.1" x2="332.5" y2="201.5" stroke="var(--text)" stroke-width="1.5"/>
<line x1="327.5" y1="159.1" x2="337.5" y2="159.1" stroke="var(--text)" stroke-width="1.5"/>
<line x1="327.5" y1="201.5" x2="337.5" y2="201.5" stroke="var(--text)" stroke-width="1.5"/>
<text x="332.5" y="152.1" text-anchor="middle" fill="var(--text-2)" font-size="13" font-family="var(--font-mono)">14%</text>
<text x="332.5" y="270.0" text-anchor="middle" fill="var(--text)" font-size="14" font-family="var(--font-sans)">B, seed 2</text>
<line x1="70.0" y1="250.0" x2="370.0" y2="250.0" stroke="var(--text-3)" stroke-width="1.5"/>
<text x="410.0" y="22.0" fill="var(--text-2)" font-size="15" font-family="var(--font-sans)">Sampled, 4 attempts per task, 60 tasks</text>
<line x1="410.0" y1="250.0" x2="710.0" y2="250.0" stroke="var(--line)" stroke-width="1"/>
<line x1="410.0" y1="199.5" x2="710.0" y2="199.5" stroke="var(--line)" stroke-width="1"/>
<line x1="410.0" y1="149.0" x2="710.0" y2="149.0" stroke="var(--line)" stroke-width="1"/>
<line x1="410.0" y1="98.5" x2="710.0" y2="98.5" stroke="var(--line)" stroke-width="1"/>
<line x1="410.0" y1="48.0" x2="710.0" y2="48.0" stroke="var(--line)" stroke-width="1"/>
<rect x="438.0" y="149.0" width="44.0" height="101.0" rx="3.0" fill="var(--text-3)"><title>base: 20% [12%, 28%]</title></rect>
<line x1="460.0" y1="109.0" x2="460.0" y2="186.9" stroke="var(--text)" stroke-width="1.5"/>
<line x1="455.0" y1="109.0" x2="465.0" y2="109.0" stroke="var(--text)" stroke-width="1.5"/>
<line x1="455.0" y1="186.9" x2="465.0" y2="186.9" stroke="var(--text)" stroke-width="1.5"/>
<text x="460.0" y="102.0" text-anchor="middle" fill="var(--text-2)" font-size="13" font-family="var(--font-mono)">20%</text>
<text x="460.0" y="270.0" text-anchor="middle" fill="var(--text)" font-size="14" font-weight="700" font-family="var(--font-sans)">base</text>
<rect x="538.0" y="136.4" width="44.0" height="113.6" rx="3.0" fill="var(--chart-1)"><title>A (upstream trajectories): 22% [15%, 32%]</title></rect>
<line x1="560.0" y1="90.1" x2="560.0" y2="174.2" stroke="var(--text)" stroke-width="1.5"/>
<line x1="555.0" y1="90.1" x2="565.0" y2="90.1" stroke="var(--text)" stroke-width="1.5"/>
<line x1="555.0" y1="174.2" x2="565.0" y2="174.2" stroke="var(--text)" stroke-width="1.5"/>
<text x="560.0" y="83.1" text-anchor="middle" fill="var(--text-2)" font-size="13" font-family="var(--font-mono)">22%</text>
<text x="560.0" y="270.0" text-anchor="middle" fill="var(--text)" font-size="14" font-family="var(--font-sans)">A</text>
<rect x="638.0" y="155.3" width="44.0" height="94.7" rx="3.0" fill="var(--chart-2)"><title>B (our trajectories): 19% [12%, 26%]</title></rect>
<line x1="660.0" y1="117.4" x2="660.0" y2="191.1" stroke="var(--text)" stroke-width="1.5"/>
<line x1="655.0" y1="117.4" x2="665.0" y2="117.4" stroke="var(--text)" stroke-width="1.5"/>
<line x1="655.0" y1="191.1" x2="665.0" y2="191.1" stroke="var(--text)" stroke-width="1.5"/>
<text x="660.0" y="110.4" text-anchor="middle" fill="var(--text-2)" font-size="13" font-family="var(--font-mono)">19%</text>
<text x="660.0" y="270.0" text-anchor="middle" fill="var(--text)" font-size="14" font-family="var(--font-sans)">B</text>
<line x1="410.0" y1="250.0" x2="710.0" y2="250.0" stroke="var(--text-3)" stroke-width="1.5"/>
<text x="70.0" y="300.0" fill="var(--text-3)" font-size="12" font-family="var(--font-sans)">A: upstream's 4,439 trajectories. B: our 1,897, collected in the same shell harness. Whiskers are 95% intervals.</text>
</g>
</svg>
